<?xml version="1.0" encoding="UTF-8" standalone="no"?>
<!-- Created with Inkscape (http://www.inkscape.org/) -->

<svg
   xmlns:dc="http://purl.org/dc/elements/1.1/"
   xmlns:cc="http://creativecommons.org/ns#"
   xmlns:rdf="http://www.w3.org/1999/02/22-rdf-syntax-ns#"
   xmlns:svg="http://www.w3.org/2000/svg"
   xmlns="http://www.w3.org/2000/svg"
   xmlns:xlink="http://www.w3.org/1999/xlink"
   xmlns:sodipodi="http://sodipodi.sourceforge.net/DTD/sodipodi-0.dtd"
   xmlns:inkscape="http://www.inkscape.org/namespaces/inkscape"
   width="1024"
   height="1024"
   id="svg2"
   version="1.1"
   inkscape:version="0.48.3.1 r9886"
   sodipodi:docname="Neues Dokument 1">
  <defs
     id="defs4">
    <linearGradient
       id="linearGradient3842">
      <stop
         style="stop-color:#00beff;stop-opacity:1;"
         offset="0"
         id="stop3844" />
      <stop
         style="stop-color:#000062;stop-opacity:1;"
         offset="1"
         id="stop3846" />
    </linearGradient>
    <linearGradient
       inkscape:collect="always"
       xlink:href="#linearGradient3842"
       id="linearGradient3848"
       x1="64"
       y1="288.25018"
       x2="64"
       y2="792.47418"
       gradientUnits="userSpaceOnUse" />
  </defs>
  <sodipodi:namedview
     id="base"
     pagecolor="#ffffff"
     bordercolor="#666666"
     borderopacity="1.0"
     inkscape:pageopacity="0.0"
     inkscape:pageshadow="2"
     inkscape:zoom="0.49497475"
     inkscape:cx="636.71254"
     inkscape:cy="541.5226"
     inkscape:document-units="px"
     inkscape:current-layer="layer1"
     showgrid="false"
     inkscape:snap-bbox="true"
     inkscape:bbox-nodes="true"
     inkscape:snap-bbox-edge-midpoints="true"
     inkscape:window-width="1317"
     inkscape:window-height="744"
     inkscape:window-x="49"
     inkscape:window-y="24"
     inkscape:window-maximized="1" />
  <metadata
     id="metadata7">
    <rdf:RDF>
      <cc:Work
         rdf:about="">
        <dc:format>image/svg+xml</dc:format>
        <dc:type
           rdf:resource="http://purl.org/dc/dcmitype/StillImage" />
        <dc:title></dc:title>
      </cc:Work>
    </rdf:RDF>
  </metadata>
  <g
     inkscape:label="Ebene 1"
     inkscape:groupmode="layer"
     id="layer1"
     transform="translate(0,-28.362183)">
    <path
       style="fill:url(#linearGradient3848);stroke:none;fill-opacity:1"
       d="M 512.00002,288.25017 C 264.57644,288.25017 64,355.09965 64,437.57418 c 0,4.53218 0.612,9.0063 1.792,13.44 -1.185,4.42783 -1.792,8.90938 -1.792,13.44 0,4.84603 0.6966,9.63146 2.044,14.364 -1.3439,4.71071 -2.044,9.47992 -2.044,14.308 0,5.45452 0.8732,10.84746 2.576,16.156 -1.7034,5.2928 -2.576,10.65641 -2.576,16.1 0,43.63166 56.1451,82.90443 145.656,110.20801 L 159.732,792.4742 409.94001,670.84219 c 32.77966,2.54543 66.95517,3.892 102.06001,3.892 C 759.4236,674.73419 960,607.85671 960,525.38218 c 0,-82.47453 -200.5764,-149.324 -447.99998,-149.324 -208.25348,0 -383.34162,47.34871 -433.55202,111.524 33.7715,-71.32534 219.03892,-125.86001 442.51202,-125.86001 212.68524,0 390.73855,49.41048 436.54798,115.66801 C 933.90196,402.31881 743.46559,343.80217 512.00002,343.80217 312.12494,343.80217 142.83,387.43675 85.14,447.68218 132.0706,381.94347 309.37446,333.05017 520.96002,333.05017 c 212.68524,0 390.73855,49.41048 436.54798,115.66801 -23.60604,-75.07137 -214.04241,-133.58801 -445.50798,-133.58801 -192.86559,0 -357.26752,40.60426 -420.39202,97.58001 55.1854,-61.62376 226.53278,-106.54001 429.35202,-106.54001 212.68524,0 390.73855,49.41048 436.54798,115.66801 C 933.90196,346.7668 743.46559,288.25017 512.00002,288.25017 z"
       id="path3050"
       inkscape:connector-curvature="0" />
  </g>
</svg>
