<?xml version="1.0" encoding="UTF-8" standalone="no"?>
<!-- Created with Inkscape (http://www.inkscape.org/) -->

<svg
   xmlns:dc="http://purl.org/dc/elements/1.1/"
   xmlns:cc="http://creativecommons.org/ns#"
   xmlns:rdf="http://www.w3.org/1999/02/22-rdf-syntax-ns#"
   xmlns:svg="http://www.w3.org/2000/svg"
   xmlns="http://www.w3.org/2000/svg"
   xmlns:sodipodi="http://sodipodi.sourceforge.net/DTD/sodipodi-0.dtd"
   xmlns:inkscape="http://www.inkscape.org/namespaces/inkscape"
   width="96"
   height="96"
   id="svg3068"
   version="1.1"
   inkscape:version="0.48.2 r9819"
   sodipodi:docname="settings-spare-time.svg"
   inkscape:export-filename="D:\Documents\JunoWorkspace\Spirit4Android\settings-spare-time.png"
   inkscape:export-xdpi="180"
   inkscape:export-ydpi="180">
  <defs
     id="defs3070" />
  <sodipodi:namedview
     id="base"
     pagecolor="#ffffff"
     bordercolor="#666666"
     borderopacity="1.0"
     inkscape:pageopacity="0.0"
     inkscape:pageshadow="2"
     inkscape:zoom="3.959798"
     inkscape:cx="51.737797"
     inkscape:cy="67.018914"
     inkscape:document-units="px"
     inkscape:current-layer="layer1"
     showgrid="false"
     inkscape:snap-bbox="true"
     inkscape:bbox-paths="false"
     inkscape:bbox-nodes="false"
     inkscape:snap-bbox-edge-midpoints="false"
     inkscape:snap-bbox-midpoints="true"
     inkscape:window-width="1920"
     inkscape:window-height="1028"
     inkscape:window-x="-8"
     inkscape:window-y="-8"
     inkscape:window-maximized="1"
     showguides="true"
     inkscape:guide-bbox="true"
     inkscape:object-nodes="true"
     inkscape:snap-nodes="false" />
  <metadata
     id="metadata3073">
    <rdf:RDF>
      <cc:Work
         rdf:about="">
        <dc:format>image/svg+xml</dc:format>
        <dc:type
           rdf:resource="http://purl.org/dc/dcmitype/StillImage" />
        <dc:title></dc:title>
      </cc:Work>
    </rdf:RDF>
  </metadata>
  <g
     inkscape:label="Ebene 1"
     inkscape:groupmode="layer"
     id="layer1"
     transform="translate(0,-956.36218)">
    <g
       id="g3027"
       transform="translate(0.16517815,-0.20702522)">
      <path
         inkscape:connector-curvature="0"
         id="rect3021"
         d="m 54.459822,1016.5352 c -3.495912,0 -6.3125,2.8166 -6.3125,6.3125 l 0,18.1875 c 0,3.4959 2.816588,6.3125 6.3125,6.3125 l 29.75,0 c 3.495912,0 6.28125,-2.8166 6.28125,-6.3125 l 0,-18.1875 c 0,-3.4959 -2.785338,-6.3125 -6.28125,-6.3125 l -29.75,0 z m 0.75,0.75 28.25,0 c 3.324,0 6,2.676 6,6 l 0,17.3125 c 0,3.324 -2.676,6 -6,6 l -28.25,0 c -3.324,0 -6,-2.676 -6,-6 l 0,-17.3125 c 0,-3.324 2.676,-6 6,-6 z"
         style="fill:#008000;fill-opacity:1" />
      <rect
         y="981.4693"
         x="5.1785717"
         height="17.678572"
         width="25.892857"
         id="rect3076"
         style="fill:#008000;fill-opacity:1" />
      <rect
         style="fill:#008000;fill-opacity:1"
         id="rect3078"
         width="25.892857"
         height="17.678572"
         x="5.1785717"
         y="1001.1479" />
      <rect
         y="1020.8265"
         x="5.1785717"
         height="17.678572"
         width="25.892857"
         id="rect3080"
         style="fill:#008000;fill-opacity:1" />
      <rect
         style="fill:#008000;fill-opacity:1"
         id="rect3082"
         width="25.892857"
         height="17.678572"
         x="33.071426"
         y="981.4693" />
      <path
         sodipodi:nodetypes="cccsccc"
         inkscape:connector-curvature="0"
         id="rect3084"
         transform="translate(0,956.36218)"
         d="m 33.0625,44.78125 0,17.6875 15.1875,0 c 1.174748,-1.806269 3.207959,-3 5.53125,-3 l 5.1875,0 0,-14.6875 z"
         style="fill:#008000;fill-opacity:1" />
      <rect
         style="fill:#008000;fill-opacity:1"
         id="rect3086"
         width="25.892857"
         height="17.678572"
         x="33.071426"
         y="961.79071" />
      <rect
         y="981.4693"
         x="60.964283"
         height="17.678572"
         width="25.892857"
         id="rect3088"
         style="fill:#008000;fill-opacity:1" />
      <rect
         style="fill:#008000;fill-opacity:1"
         id="rect3090"
         width="25.892857"
         height="17.678572"
         x="60.964283"
         y="981.4693" />
      <g
         transform="matrix(1.2561973,0,0,1.2561973,-57.096798,-277.35524)"
         id="g3010">
        <rect
           style="fill:#008000;fill-opacity:1"
           id="rect3006"
           width="4.5456862"
           height="17.425131"
           x="103.66691"
           y="77.059639"
           transform="translate(0,956.36218)" />
        <rect
           y="1033.4219"
           x="110.21259"
           height="17.425131"
           width="4.5456862"
           id="rect3008"
           style="fill:#008000;fill-opacity:1" />
      </g>
      <path
         inkscape:transform-center-x="-3.1594669"
         transform="matrix(1.1284871,0,0,1.1284871,-31.233072,962.6399)"
         d="m 73.909208,51.56156 16.798399,9.69856 -16.798399,9.698561 z"
         inkscape:randomized="0"
         inkscape:rounded="0"
         inkscape:flatsided="true"
         sodipodi:arg2="-1.0471976"
         sodipodi:arg1="-2.0943951"
         sodipodi:r2="5.5994663"
         sodipodi:r1="11.198933"
         sodipodi:cy="61.26012"
         sodipodi:cx="79.508675"
         sodipodi:sides="3"
         id="path3017"
         style="fill:#008000;fill-opacity:1"
         sodipodi:type="star" />
    </g>
  </g>
</svg>
