<?xml version="1.0" encoding="UTF-8" standalone="no"?>
<!-- Created with Inkscape (http://www.inkscape.org/) -->

<svg
   xmlns:dc="http://purl.org/dc/elements/1.1/"
   xmlns:cc="http://creativecommons.org/ns#"
   xmlns:rdf="http://www.w3.org/1999/02/22-rdf-syntax-ns#"
   xmlns:svg="http://www.w3.org/2000/svg"
   xmlns="http://www.w3.org/2000/svg"
   xmlns:sodipodi="http://sodipodi.sourceforge.net/DTD/sodipodi-0.dtd"
   xmlns:inkscape="http://www.inkscape.org/namespaces/inkscape"
   width="96"
   height="96"
   id="svg3035"
   version="1.1"
   inkscape:version="0.48.2 r9819"
   sodipodi:docname="settings-alarm-icon.svg"
   inkscape:export-filename="D:\Documents\JunoWorkspace\Spirit4Android\settings-alarm-icon.png"
   inkscape:export-xdpi="180"
   inkscape:export-ydpi="180">
  <defs
     id="defs3037" />
  <sodipodi:namedview
     id="base"
     pagecolor="#ffffff"
     bordercolor="#666666"
     borderopacity="1.0"
     inkscape:pageopacity="0.0"
     inkscape:pageshadow="2"
     inkscape:zoom="0.7"
     inkscape:cx="-776.76649"
     inkscape:cy="35.660003"
     inkscape:document-units="px"
     inkscape:current-layer="layer1"
     showgrid="false"
     inkscape:object-paths="true"
     inkscape:snap-smooth-nodes="true"
     inkscape:snap-midpoints="true"
     inkscape:snap-object-midpoints="true"
     inkscape:snap-center="true"
     inkscape:window-width="1920"
     inkscape:window-height="1028"
     inkscape:window-x="-8"
     inkscape:window-y="-8"
     inkscape:window-maximized="1" />
  <metadata
     id="metadata3040">
    <rdf:RDF>
      <cc:Work
         rdf:about="">
        <dc:format>image/svg+xml</dc:format>
        <dc:type
           rdf:resource="http://purl.org/dc/dcmitype/StillImage" />
        <dc:title></dc:title>
      </cc:Work>
    </rdf:RDF>
  </metadata>
  <g
     inkscape:label="Ebene 1"
     inkscape:groupmode="layer"
     id="layer1"
     transform="translate(0,-956.36218)">
    <path
       style="fill:#008000;fill-opacity:1"
       d="m 34.453125,962.27267 c -1.750699,0.0107 -3.611823,0.27531 -5.5,0.78125 -7.552709,2.02374 -12.656991,7.42592 -11.40625,12.09375 l 13.6875,-3.65625 13.6875,-3.65625 c -0.938056,-3.50087 -5.216652,-5.59461 -10.46875,-5.5625 z m 27.0625,0 c -5.252098,-0.0321 -9.499444,2.06163 -10.4375,5.5625 l 13.65625,3.65625 13.6875,3.65625 c 1.250741,-4.66783 -3.853541,-10.07001 -11.40625,-12.09375 -1.888177,-0.50594 -3.749301,-0.77055 -5.5,-0.78125 z m -13.53125,7.75 c -8.454576,0 -16.893126,3.23688 -23.34375,9.6875 -12.901248,12.90125 -12.901248,33.81743 0,46.71873 0.865255,0.8652 1.75497,1.657 2.6875,2.4062 l -8,13.8438 c -0.554,0.9595 -0.240806,2.196 0.71875,2.75 l 1.34375,0.75 c 0.959556,0.554 2.16475,0.2408 2.71875,-0.7188 l 7.8125,-13.5312 c 9.956457,5.549 22.166681,5.5444 32.125,0 l 7.8125,13.5312 c 0.554,0.9596 1.759194,1.2728 2.71875,0.7188 l 1.34375,-0.75 c 0.959556,-0.554 1.27275,-1.7905 0.71875,-2.75 l -8,-13.8438 c 0.93253,-0.7492 1.853495,-1.541 2.71875,-2.4062 12.901248,-12.9013 12.901248,-33.81748 0,-46.71873 -6.450624,-6.45062 -14.920424,-9.6875 -23.375,-9.6875 z m 0,8.84375 c 13.363318,0 24.1875,10.82418 24.1875,24.18748 0,13.3633 -10.824182,24.2187 -24.1875,24.2187 -13.363318,0 -24.1875,-10.8554 -24.1875,-24.2187 0,-13.3633 10.824182,-24.18748 24.1875,-24.18748 z"
       id="path3043"
       inkscape:connector-curvature="0" />
    <path
       style="fill:#008000;fill-opacity:1"
       d="m 47.09375,982.79962 c -1.108,0 -2,0.892 -2,2 l 0,16.37498 -16.656252,0 c -1.108,0 -2,0.892 -2,2 l 0,1.1876 c 0,1.108 0.892,2 2,2 l 18.656252,0 0.90625,0 0.25,0 c 1.108,0 2,-0.892 2,-2 l 0,-19.56258 c 0,-1.108 -0.892,-2 -2,-2 l -1.15625,0 z"
       id="rect3061"
       inkscape:connector-curvature="0" />
  </g>
</svg>
